<mxfile host="app.diagrams.net" agent="Mozilla/5.0 (Windows NT 10.0; Win64; x64; rv:133.0) Gecko/20100101 Firefox/133.0" version="24.9.1">
  <diagram name="Pagina-1" id="p-xkgEhgGC0kH57rnZ7m">
    <mxGraphModel dx="840" dy="524" grid="1" gridSize="10" guides="1" tooltips="1" connect="1" arrows="1" fold="1" page="1" pageScale="1" pageWidth="827" pageHeight="1169" math="0" shadow="0">
      <root>
        <mxCell id="0" />
        <mxCell id="1" parent="0" />
        <object label="&lt;div&gt;CATALOGO&lt;/div&gt;&lt;div&gt;EVENTI&lt;/div&gt;" id="mgpYxrOViz1iER3tD-be-1">
          <mxCell style="html=1;dropTarget=0;whiteSpace=wrap;direction=west;" vertex="1" parent="1">
            <mxGeometry x="180" y="110" width="180" height="90" as="geometry" />
          </mxCell>
        </object>
        <mxCell id="mgpYxrOViz1iER3tD-be-2" value="" style="shape=module;jettyWidth=8;jettyHeight=4;" vertex="1" parent="mgpYxrOViz1iER3tD-be-1">
          <mxGeometry x="1" width="20" height="20" relative="1" as="geometry">
            <mxPoint x="-27" y="7" as="offset" />
          </mxGeometry>
        </mxCell>
        <mxCell id="mgpYxrOViz1iER3tD-be-4" value="" style="rounded=0;orthogonalLoop=1;jettySize=auto;html=1;endArrow=halfCircle;endFill=0;endSize=10;strokeWidth=2;sketch=0;fontSize=12;curved=1;exitX=1;exitY=0.75;exitDx=0;exitDy=0;targetPerimeterSpacing=0;startSize=10;" edge="1" parent="1" source="mgpYxrOViz1iER3tD-be-1">
          <mxGeometry relative="1" as="geometry">
            <mxPoint x="135" y="125" as="sourcePoint" />
            <mxPoint x="115" y="133" as="targetPoint" />
          </mxGeometry>
        </mxCell>
        <mxCell id="mgpYxrOViz1iER3tD-be-5" value="" style="ellipse;whiteSpace=wrap;html=1;align=center;aspect=fixed;fillColor=none;strokeColor=none;resizable=0;perimeter=centerPerimeter;rotatable=0;allowArrows=0;points=[];outlineConnect=1;" vertex="1" parent="1">
          <mxGeometry x="110" y="120" width="10" height="10" as="geometry" />
        </mxCell>
      </root>
    </mxGraphModel>
  </diagram>
</mxfile>
